<svg width="1200" height="720" viewBox="0 0 1200 720" fill="none" xmlns="http://www.w3.org/2000/svg" role="img" aria-labelledby="title desc">
  <title id="title">Jan_Rag workbench preview</title>
  <desc id="desc">A GitHub README preview image showing the Jan_Rag knowledge workspace, document center, QA entry, and admin console.</desc>
  <defs>
    <filter id="shadow" x="-20%" y="-20%" width="140%" height="140%" color-interpolation-filters="sRGB">
      <feDropShadow dx="0" dy="18" stdDeviation="24" flood-color="#111111" flood-opacity="0.12"/>
    </filter>
  </defs>
  <rect width="1200" height="720" fill="#F5F6F8"/>

  <rect x="58" y="48" width="1084" height="624" rx="26" fill="#FFFFFF" filter="url(#shadow)"/>
  <rect x="58" y="48" width="1084" height="624" rx="26" stroke="#D8DDE3"/>

  <rect x="58" y="48" width="238" height="624" rx="26" fill="#111111"/>
  <path d="M296 48H322V672H296V48Z" fill="#111111"/>
  <circle cx="96" cy="88" r="12" fill="#FFFFFF"/>
  <text x="122" y="94" fill="#FFFFFF" font-family="Inter, Segoe UI, Arial, sans-serif" font-size="24" font-weight="700">Jan_Rag</text>
  <text x="96" y="126" fill="#A6A6A6" font-family="Inter, Segoe UI, Arial, sans-serif" font-size="12">Knowledge Console</text>

  <g font-family="Inter, Segoe UI, Arial, sans-serif" font-size="15" font-weight="600">
    <rect x="86" y="166" width="180" height="42" rx="8" fill="#FFFFFF"/>
    <text x="110" y="193" fill="#111111">Knowledge Space</text>
    <rect x="86" y="220" width="180" height="42" rx="8" fill="#242424"/>
    <text x="110" y="247" fill="#D8D8D8">Documents</text>
    <rect x="86" y="274" width="180" height="42" rx="8" fill="#242424"/>
    <text x="110" y="301" fill="#D8D8D8">Evidence QA</text>
    <rect x="86" y="328" width="180" height="42" rx="8" fill="#242424"/>
    <text x="110" y="355" fill="#D8D8D8">Jan Assistant</text>
    <rect x="86" y="382" width="180" height="42" rx="8" fill="#242424"/>
    <text x="110" y="409" fill="#D8D8D8">Admin Console</text>
  </g>

  <rect x="86" y="582" width="180" height="52" rx="10" fill="#1F1F1F"/>
  <text x="108" y="607" fill="#FFFFFF" font-family="Inter, Segoe UI, Arial, sans-serif" font-size="14" font-weight="700">Team Owner</text>
  <text x="108" y="626" fill="#A7A7A7" font-family="Inter, Segoe UI, Arial, sans-serif" font-size="12">JWT + refresh cookie</text>

  <text x="350" y="95" fill="#111111" font-family="Inter, Segoe UI, Arial, sans-serif" font-size="28" font-weight="800">Knowledge workspace</text>
  <text x="350" y="125" fill="#6B7280" font-family="Inter, Segoe UI, Arial, sans-serif" font-size="15">Upload, index, retrieve, cite, and continue conversation in one console.</text>

  <rect x="950" y="76" width="128" height="38" rx="8" fill="#111111"/>
  <text x="984" y="100" fill="#FFFFFF" font-family="Inter, Segoe UI, Arial, sans-serif" font-size="14" font-weight="700">New Upload</text>

  <g font-family="Inter, Segoe UI, Arial, sans-serif">
    <rect x="350" y="166" width="216" height="120" rx="12" fill="#F9FAFB" stroke="#D8DDE3"/>
    <text x="376" y="203" fill="#111111" font-size="15" font-weight="700">Owned groups</text>
    <text x="376" y="244" fill="#111111" font-size="42" font-weight="800">12</text>
    <text x="438" y="245" fill="#16A34A" font-size="14" font-weight="700">READY</text>

    <rect x="592" y="166" width="216" height="120" rx="12" fill="#F9FAFB" stroke="#D8DDE3"/>
    <text x="618" y="203" fill="#111111" font-size="15" font-weight="700">Documents</text>
    <text x="618" y="244" fill="#111111" font-size="42" font-weight="800">248</text>
    <text x="706" y="245" fill="#6B7280" font-size="14" font-weight="700">indexed</text>

    <rect x="834" y="166" width="216" height="120" rx="12" fill="#F9FAFB" stroke="#D8DDE3"/>
    <text x="860" y="203" fill="#111111" font-size="15" font-weight="700">Retrieval</text>
    <text x="860" y="244" fill="#111111" font-size="42" font-weight="800">RRF</text>
    <text x="945" y="245" fill="#2563EB" font-size="14" font-weight="700">hybrid</text>
  </g>

  <rect x="350" y="324" width="456" height="284" rx="14" fill="#FFFFFF" stroke="#D8DDE3"/>
  <text x="378" y="362" fill="#111111" font-family="Inter, Segoe UI, Arial, sans-serif" font-size="18" font-weight="800">Document center</text>
  <rect x="378" y="386" width="400" height="38" rx="8" fill="#F3F4F6"/>
  <text x="398" y="411" fill="#4B5563" font-family="Inter, Segoe UI, Arial, sans-serif" font-size="13">filename</text>
  <text x="596" y="411" fill="#4B5563" font-family="Inter, Segoe UI, Arial, sans-serif" font-size="13">status</text>
  <text x="684" y="411" fill="#4B5563" font-family="Inter, Segoe UI, Arial, sans-serif" font-size="13">chunks</text>

  <g font-family="Inter, Segoe UI, Arial, sans-serif" font-size="14">
    <text x="398" y="463" fill="#111111" font-weight="700">api-contract.md</text>
    <rect x="592" y="444" width="68" height="28" rx="14" fill="#DCFCE7"/>
    <text x="608" y="463" fill="#166534" font-weight="700">READY</text>
    <text x="700" y="463" fill="#111111">42</text>

    <text x="398" y="512" fill="#111111" font-weight="700">deployment.pdf</text>
    <rect x="592" y="493" width="68" height="28" rx="14" fill="#DCFCE7"/>
    <text x="608" y="512" fill="#166534" font-weight="700">READY</text>
    <text x="700" y="512" fill="#111111">68</text>

    <text x="398" y="561" fill="#111111" font-weight="700">runbook.docx</text>
    <rect x="592" y="542" width="68" height="28" rx="14" fill="#FEF3C7"/>
    <text x="610" y="561" fill="#92400E" font-weight="700">SYNC</text>
    <text x="700" y="561" fill="#111111">19</text>
  </g>

  <rect x="836" y="324" width="242" height="284" rx="14" fill="#111111"/>
  <text x="864" y="362" fill="#FFFFFF" font-family="Inter, Segoe UI, Arial, sans-serif" font-size="18" font-weight="800">Evidence QA</text>
  <rect x="864" y="388" width="186" height="54" rx="10" fill="#242424"/>
  <text x="884" y="413" fill="#FFFFFF" font-family="Inter, Segoe UI, Arial, sans-serif" font-size="14" font-weight="700">Ask in group scope</text>
  <text x="884" y="432" fill="#A7A7A7" font-family="Inter, Segoe UI, Arial, sans-serif" font-size="12">Owner or member only</text>

  <rect x="864" y="466" width="186" height="96" rx="10" fill="#FFFFFF"/>
  <text x="884" y="493" fill="#111111" font-family="Inter, Segoe UI, Arial, sans-serif" font-size="13" font-weight="700">Answer with citations</text>
  <rect x="884" y="510" width="128" height="8" rx="4" fill="#D1D5DB"/>
  <rect x="884" y="527" width="146" height="8" rx="4" fill="#D1D5DB"/>
  <rect x="884" y="544" width="96" height="8" rx="4" fill="#D1D5DB"/>
  <path d="M864 588H1050" stroke="#3A3A3A"/>
  <text x="864" y="618" fill="#A7A7A7" font-family="Inter, Segoe UI, Arial, sans-serif" font-size="12">pgvector + Elasticsearch + LLM</text>
</svg>
